<svg width="12" height="13" viewBox="0 0 12 13" fill="none" xmlns="http://www.w3.org/2000/svg">
<path fill-rule="evenodd" clip-rule="evenodd" d="M6 12.5C6.78793 12.5 7.56815 12.3448 8.2961 12.0433C9.02405 11.7417 9.68549 11.2998 10.2426 10.7426C10.7998 10.1855 11.2417 9.52405 11.5433 8.7961C11.8448 8.06815 12 7.28793 12 6.5C12 5.71207 11.8448 4.93185 11.5433 4.2039C11.2417 3.47595 10.7998 2.81451 10.2426 2.25736C9.68549 1.70021 9.02405 1.25825 8.2961 0.956723C7.56815 0.655195 6.78793 0.5 6 0.5C4.4087 0.5 2.88258 1.13214 1.75736 2.25736C0.632141 3.38258 0 4.9087 0 6.5C0 8.0913 0.632141 9.61742 1.75736 10.7426C2.88258 11.8679 4.4087 12.5 6 12.5ZM5.84533 8.92667L9.17867 4.92667L8.15467 4.07333L5.288 7.51267L3.80467 6.02867L2.862 6.97133L4.862 8.97133L5.378 9.48733L5.84533 8.92667Z" fill="#2DA44A"/>
</svg>
